Coordinates
version=1
nRows=17
nColumns=40
inDegrees=yes

Units are S.I. units (second, meters, Newtons, ...)
If the header above contains a line with 'inDegrees', this indicates whether rotational values are in degrees (yes) or radians (no).

endheader
time	pelvis_tilt	pelvis_list	pelvis_rotation	pelvis_tx	pelvis_ty	pelvis_tz	hip_flexion_r	hip_adduction_r	hip_rotation_r	knee_angle_r	knee_angle_r_beta	ankle_angle_r	subtalar_angle_r	mtp_angle_r	hip_flexion_l	hip_adduction_l	hip_rotation_l	knee_angle_l	knee_angle_l_beta	ankle_angle_l	subtalar_angle_l	mtp_angle_l	lumbar_extension	lumbar_bending	lumbar_rotation	arm_flex_r	arm_add_r	arm_rot_r	elbow_flex_r	pro_sup_r	wrist_flex_r	wrist_dev_r	arm_flex_l	arm_add_l	arm_rot_l	elbow_flex_l	pro_sup_l	wrist_flex_l	wrist_dev_l
      5.41500000	    -40.61779876	      9.27424407	      5.12911965	     -0.44939604	      0.71766593	     -0.92314494	    103.83060238	    -19.57617488	      8.98488602	     85.44241173	      1.49125141	     27.62223616	      0.00000000	      0.00000000	     96.80639274	     -5.83169578	     -7.67601062	     82.70281164	      1.44343636	     29.03726495	      0.00000000	      0.00000000	    -35.26259916	     -1.80139352	    -13.49671138	    -10.75233583	    -63.29110626	     55.18205761	    112.86949892	     88.13353189	      0.00000000	      0.00000000	    -11.24395328	    -62.20808259	     57.40810171	    103.73858286	     88.27543386	      0.00000000	      0.00000000
      5.42000000	    -40.54437764	      9.54644764	      5.09605419	     -0.44891550	      0.71789094	     -0.92329411	    103.85091986	    -19.58085176	      9.22168420	     85.47337046	      1.49179174	     27.54950144	      0.00000000	      0.00000000	     96.60131374	     -5.81719516	     -7.93676421	     82.68131614	      1.44306120	     29.15136745	      0.00000000	      0.00000000	    -35.40210295	     -2.03915309	    -13.61950735	    -10.86320418	    -63.21660567	     55.02065106	    112.80145831	     88.12412474	      0.00000000	      0.00000000	    -11.17833449	    -62.22028987	     57.46417557	    103.68835710	     88.28338898	      0.00000000	      0.00000000
      5.42500000	    -40.52725042	      9.51585306	      5.03589612	     -0.44872011	      0.71784421	     -0.92315641	    103.80970791	    -19.53382857	      9.16125441	     85.48378940	      1.49197358	     27.55082510	      0.00000000	      0.00000000	     96.59734509	     -5.88457674	     -7.90223439	     82.72671070	      1.44385348	     29.15831694	      0.00000000	      0.00000000	    -35.41077092	     -2.04675030	    -13.49752708	    -10.90142311	    -63.20820086	     55.02388470	    112.79678909	     88.15243988	      0.00000000	      0.00000000	    -10.86904055	    -62.25416155	     57.78995171	    103.67617384	     88.26594136	      0.00000000	      0.00000000
      5.43000000	    -40.57930975	      9.65975981	      4.89568577	     -0.44856952	      0.71772979	     -0.92292638	    103.88529580	    -19.33828831	      9.30357022	     85.46558520	      1.49165586	     27.57391596	      0.00000000	      0.00000000	     96.59615494	     -6.03643575	     -8.02944925	     82.74881917	      1.44423935	     29.23316842	      0.00000000	      0.00000000	    -35.37962653	     -2.27636570	    -13.43560582	    -11.03162836	    -63.14484446	     54.93563934	    112.78114208	     88.14059758	      0.00000000	      0.00000000	    -10.81269469	    -62.30334249	     57.85564807	    103.67577309	     88.27232425	      0.00000000	      0.00000000
      5.43500000	    -40.57563468	      9.64098601	      4.70969695	     -0.44837694	      0.71767802	     -0.92247727	    103.83342776	    -19.12409596	      9.23947849	     85.45347848	      1.49144456	     27.59967958	      0.00000000	      0.00000000	     96.59311142	     -6.24727486	     -7.98569668	     82.79698329	      1.44507997	     29.29442759	      0.00000000	      0.00000000	    -35.36563849	     -2.38191600	    -13.20277445	    -11.14762080	    -63.08744145	     54.86287086	    112.74306610	     88.13592081	      0.00000000	      0.00000000	    -10.47363938	    -62.35287749	     58.23319502	    103.65687750	     88.26827317	      0.00000000	      0.00000000
      5.44000000	    -40.62860597	      9.70094579	      4.55948292	     -0.44827183	      0.71767115	     -0.92218456	    103.86242296	    -18.92174646	      9.29258770	     85.40891832	      1.49066684	     27.58618101	      0.00000000	      0.00000000	     96.61985275	     -6.40686330	     -8.02171690	     82.82251126	      1.44552552	     29.31689136	      0.00000000	      0.00000000	    -35.32646255	     -2.53739325	    -13.06530036	    -11.31816765	    -63.03366897	     54.67178158	    112.73137883	     88.13521425	      0.00000000	      0.00000000	    -10.34668480	    -62.39262831	     58.34119450	    103.65259469	     88.28015619	      0.00000000	      0.00000000
      5.44500000	    -40.56573147	      9.60086070	      4.60498616	     -0.44783881	      0.71798358	     -0.92233675	    103.71551901	    -19.03174161	      9.14860374	     85.38931197	      1.49032464	     27.75782380	      0.00000000	      0.00000000	     96.53474228	     -6.30436212	     -7.87296431	     82.78957500	      1.44495067	     29.48998373	      0.00000000	      0.00000000	    -35.42027370	     -2.38111375	    -13.04984886	    -11.36181941	    -63.03314885	     54.60125435	    112.72600431	     88.07949572	      0.00000000	      0.00000000	    -10.40474457	    -62.29764058	     58.22889676	    103.56656651	     88.28573995	      0.00000000	      0.00000000
      5.45000000	    -40.60758649	      9.89735466	      4.51350471	     -0.44758478	      0.71804152	     -0.92228627	    103.85084450	    -18.89915924	      9.45199001	     85.38079486	      1.49017599	     27.59184851	      0.00000000	      0.00000000	     96.45456121	     -6.39822669	     -8.18224096	     82.77012536	      1.44461121	     29.42577025	      0.00000000	      0.00000000	    -35.35589579	     -2.72406579	    -13.13716091	    -11.15460249	    -62.98662441	     54.83995658	    112.65795881	     88.13281618	      0.00000000	      0.00000000	    -10.06596838	    -62.38947603	     58.67506351	    103.54104804	     88.27464644	      0.00000000	      0.00000000
      5.45500000	    -40.63100450	      9.92474906	      4.59690119	     -0.44721889	      0.71823000	     -0.92258783	    103.85792702	    -19.00843249	      9.49798450	     85.38856826	      1.49031166	     27.64325381	      0.00000000	      0.00000000	     96.42858883	     -6.27365830	     -8.20361734	     82.74385528	      1.44415271	     29.44641704	      0.00000000	      0.00000000	    -35.30570266	     -2.69671076	    -13.21815291	    -11.05056814	    -62.98927236	     54.96131261	    112.60937416	     88.13071504	      0.00000000	      0.00000000	    -10.00989564	    -62.32914531	     58.73041166	    103.45848172	     88.28702185	      0.00000000	      0.00000000
      5.46000000	    -40.55644829	     10.22526444	      4.87738340	     -0.44652294	      0.71878831	     -0.92359814	    103.88892168	    -19.38735334	      9.84059605	     85.41410012	      1.49075727	     27.64128386	      0.00000000	      0.00000000	     96.16767650	     -5.85247832	     -8.49477773	     82.62274561	      1.44203895	     29.55002119	      0.00000000	      0.00000000	    -35.41188336	     -2.75090680	    -13.63085670	    -10.93302557	    -62.98010022	     55.05537486	    112.54332875	     88.13916991	      0.00000000	      0.00000000	     -9.90945754	    -62.25259261	     58.82964426	    103.36325514	     88.27667049	      0.00000000	      0.00000000
      5.46500000	    -40.63994764	     10.06182428	      4.88387695	     -0.44643583	      0.71889717	     -0.92357062	    103.86459236	    -19.38432162	      9.67281964	     85.36661131	      1.48992844	     27.67970595	      0.00000000	      0.00000000	     96.27072324	     -5.84408529	     -8.31681818	     82.59362078	      1.44153062	     29.51444505	      0.00000000	      0.00000000	    -35.27224076	     -2.60801833	    -13.56825318	    -10.78625274	    -63.04046912	     55.17445680	    112.50364079	     88.12467821	      0.00000000	      0.00000000	     -9.96274966	    -62.16760807	     58.81823060	    103.30324728	     88.27740173	      0.00000000	      0.00000000
      5.47000000	    -40.64894038	      9.66870431	      4.93469397	     -0.44636819	      0.71912702	     -0.92358160	    103.65606798	    -19.44767271	      9.29061400	     85.29236752	      1.48863264	     27.78980793	      0.00000000	      0.00000000	     96.38720186	     -5.77761188	     -7.88980891	     82.58342298	      1.44135264	     29.46192068	      0.00000000	      0.00000000	    -35.20329493	     -2.21173900	    -13.40046443	    -10.81799404	    -63.12019108	     55.08122965	    112.58913513	     88.13821843	      0.00000000	      0.00000000	    -10.03981563	    -62.08560603	     58.63783056	    103.26545945	     88.30298501	      0.00000000	      0.00000000
      5.47500000	    -40.63187238	      9.99367282	      5.04601413	     -0.44588965	      0.71984206	     -0.92409730	    103.71645433	    -19.56510547	      9.67900515	     85.25212506	      1.48793028	     27.71274685	      0.00000000	      0.00000000	     96.15746117	     -5.56768766	     -8.19124175	     82.42252235	      1.43854439	     29.44604166	      0.00000000	      0.00000000	    -35.21564291	     -2.42276058	    -13.65492635	    -10.48452997	    -63.07300687	     55.43192839	    112.49369503	     88.12903295	      0.00000000	      0.00000000	     -9.65415421	    -62.09179961	     59.07101547	    103.16817335	     88.30566225	      0.00000000	      0.00000000
      5.48000000	    -40.69643639	     10.09301166	      5.02223230	     -0.44566359	      0.72029139	     -0.92417178	    103.75202169	    -19.54051758	      9.74443483	     85.16798616	      1.48646178	     27.60657030	      0.00000000	      0.00000000	     96.12526604	     -5.56061722	     -8.29088619	     82.33055022	      1.43693918	     29.47840941	      0.00000000	      0.00000000	    -35.08577404	     -2.55083144	    -13.69843122	    -10.15371809	    -63.06859183	     55.77913957	    112.44213458	     88.13267415	      0.00000000	      0.00000000	     -9.42651679	    -62.06424344	     59.34355319	    103.09615660	     88.30311086	      0.00000000	      0.00000000
      5.48500000	    -40.66220486	     10.03145392	      4.96761288	     -0.44519224	      0.72105264	     -0.92406294	    103.56733607	    -19.50605704	      9.63492472	     85.04734452	      1.48435618	     27.63896782	      0.00000000	      0.00000000	     96.01113311	     -5.57626657	     -8.19840311	     82.24727492	      1.43548575	     29.50555118	      0.00000000	      0.00000000	    -35.03572881	     -2.51737982	    -13.63704554	     -9.66188358	    -63.06668390	     56.32403668	    112.32079701	     88.14416518	      0.00000000	      0.00000000	     -9.02757534	    -61.99768871	     59.79676322	    102.90401065	     88.26326792	      0.00000000	      0.00000000
      5.49000000	    -40.57182639	      9.68000693	      4.89911736	     -0.44482130	      0.72176569	     -0.92378562	    103.22346908	    -19.45947304	      9.23776559	     84.95432417	      1.48273267	     27.63014314	      0.00000000	      0.00000000	     95.96525710	     -5.64290558	     -7.83262963	     82.23046331	      1.43519233	     29.41069757	      0.00000000	      0.00000000	    -35.07192855	     -2.21831208	    -13.39297018	     -9.77700613	    -63.12032683	     56.11284624	    112.29400194	     88.13183664	      0.00000000	      0.00000000	     -9.18128836	    -61.91501662	     59.48211365	    102.88500021	     88.30974439	      0.00000000	      0.00000000
      5.49500000	    -40.60957300	      9.85016126	      4.91070666	     -0.44428194	      0.72261235	     -0.92390110	    103.19943962	    -19.45601715	      9.41550598	     84.83891606	      1.48071842	     27.72437632	      0.00000000	      0.00000000	     95.80774626	     -5.56232522	     -7.98269019	     82.04301756	      1.43192078	     29.47241481	      0.00000000	      0.00000000	    -34.92471198	     -2.39465872	    -13.50029672	     -9.12244212	    -63.05421213	     56.77412351	    112.09412555	     88.16269916	      0.00000000	      0.00000000	     -8.61459163	    -61.86521669	     60.17096487	    102.67713826	     88.25066904	      0.00000000	      0.00000000
